<?xml version="1.0" encoding="iso-8859-1"?>
<!-- Generator: Adobe Illustrator 19.0.0, SVG Export Plug-In . SVG Version: 6.00 Build 0)  -->
<svg version="1.1" id="Layer_1" xmlns="http://www.w3.org/2000/svg" xmlns:xlink="http://www.w3.org/1999/xlink" x="0px" y="0px"
	 viewBox="0 0 512 512" style="enable-background:new 0 0 512 512;" xml:space="preserve">
<circle style="fill:#FF7F4F;" cx="256" cy="256" r="256"/>
<path style="fill:#D35933;" d="M118.731,370.935l141.572,141.012c117.577-1.939,215.871-83.128,243.764-192.483L285.624,101.021
	l-47.437,20.514l13.288,46.545l9.697,30.923l62.833,63.029l-57.518,1.436l-32.323,1.15v32.008l-58.504-58.504l-89.602,20.901
	l24.355,62.485l11.043,43.711L118.731,370.935z"/>
<path style="fill:#FFFFFF;" d="M308.269,372.941H123.525c-3.808,0-6.896-3.088-6.896-6.896s3.088-6.896,6.896-6.896h184.744
	c10.852,0,19.682-8.83,19.682-19.684c0-10.852-8.83-19.682-19.682-19.682h-53.157c-18.458,0-33.473-15.015-33.473-33.473
	c0-18.458,15.015-33.475,33.473-33.475h76.002c12.91,0,23.414-10.504,23.414-23.414c0-12.91-10.504-23.416-23.414-23.416H256
	c-3.808,0-6.896-3.088-6.896-6.896s3.088-6.896,6.896-6.896h75.114c20.514,0,37.205,16.691,37.205,37.207
	c0,20.514-16.691,37.205-37.205,37.205h-76.002c-10.852,0-19.682,8.83-19.682,19.684c0,10.852,8.83,19.682,19.682,19.682h53.157
	c18.458,0,33.473,15.015,33.473,33.473C341.742,357.924,326.727,372.941,308.269,372.941z"/>
<path style="fill:#273B7A;" d="M261.172,92.338c-21.421,0-38.788,17.367-38.788,38.788c0,29.091,38.788,67.879,38.788,67.879
	s38.788-36.731,38.788-67.879C299.96,109.702,282.593,92.338,261.172,92.338z M261.172,140.822c-5.356,0-9.697-4.341-9.697-9.697
	c0-5.356,4.341-9.697,9.697-9.697c5.356,0,9.697,4.341,9.697,9.697C270.869,136.48,266.528,140.822,261.172,140.822z"/>
<path style="fill:#121149;" d="M261.172,92.338c-0.097,0-0.191,0.007-0.286,0.007v29.098c0.097-0.003,0.19-0.014,0.286-0.014
	c5.356,0,9.697,4.341,9.697,9.697c0,5.356-4.341,9.697-9.697,9.697c-0.097,0-0.191-0.012-0.286-0.014v57.906
	c0.171,0.174,0.286,0.291,0.286,0.291s38.788-36.733,38.788-67.88C299.96,109.702,282.593,92.338,261.172,92.338z"/>
<path style="fill:#273B7A;" d="M124.983,208.615c-32.189,0-58.284,26.095-58.284,58.283c0,43.713,58.284,101.997,58.284,101.997
	s58.284-55.193,58.284-101.997C183.267,234.708,157.172,208.615,124.983,208.615z M124.983,281.469
	c-8.047,0-14.57-6.523-14.57-14.57c0-8.047,6.523-14.57,14.57-14.57s14.57,6.523,14.57,14.57
	C139.554,274.946,133.03,281.469,124.983,281.469z"/>
<path style="fill:#121149;" d="M183.267,266.899c0-32.189-26.095-58.284-58.284-58.284v43.713c8.047,0,14.57,6.523,14.57,14.57
	c0,8.047-6.523,14.57-14.57,14.57v87.424C124.995,368.883,183.267,313.697,183.267,266.899z"/>
<g>
</g>
<g>
</g>
<g>
</g>
<g>
</g>
<g>
</g>
<g>
</g>
<g>
</g>
<g>
</g>
<g>
</g>
<g>
</g>
<g>
</g>
<g>
</g>
<g>
</g>
<g>
</g>
<g>
</g>
</svg>
